<?xml version="1.0" encoding="UTF-8" standalone="no"?>
<!DOCTYPE svg PUBLIC "-//W3C//DTD SVG 1.1//EN" "http://www.w3.org/Graphics/SVG/1.1/DTD/svg11.dtd">
<svg xmlns="http://www.w3.org/2000/svg" version="1.1" viewBox="0.00 0.00 625.00 625.00">
<ellipse fill="#ffffff" cx="0.00" cy="0.00" transform="translate(335.77,132.82) rotate(-32.9)" rx="8.87" ry="3.30"/>
<path fill="#ffffff" d="
  M 301.13 149.63
  C 300.49 151.17 300.12 152.90 298.41 153.60
  C 293.72 155.54 289.77 158.84 287.69 163.36
  C 286.34 166.32 286.10 169.92 284.92 173.14
  A 0.72 0.71 -54.2 0 1 283.69 173.34
  C 281.35 170.41 280.82 165.33 280.97 161.64
  C 281.81 140.35 301.55 126.80 321.92 132.83
  A 1.08 1.07 -70.6 0 1 322.60 134.26
  C 321.86 136.08 320.61 137.13 318.59 137.30
  C 311.26 137.90 303.93 142.84 301.13 149.63
  Z"
/>
<path fill="#ffffff" d="
  M 330.10 161.87
  Q 331.53 162.66 332.95 163.22
  Q 335.74 164.33 333.08 165.73
  C 325.47 169.73 318.61 165.44 310.91 164.54
  A 0.79 0.79 0.0 0 1 310.44 163.19
  Q 314.52 159.10 320.14 155.10
  Q 321.81 153.91 323.64 153.38
  C 326.20 152.63 326.21 149.83 327.94 148.13
  Q 335.20 141.03 345.95 141.91
  C 351.65 142.38 357.49 145.11 356.26 151.84
  A 0.90 0.89 24.2 0 1 354.83 152.38
  Q 352.50 150.57 350.42 148.28
  Q 350.05 147.87 349.52 147.96
  Q 348.96 148.05 349.22 148.57
  Q 350.27 150.66 350.78 153.12
  Q 351.05 154.45 349.70 154.54
  C 348.10 154.64 344.26 152.52 342.77 151.76
  A 0.80 0.80 0.0 0 0 341.61 152.37
  Q 341.52 152.98 341.00 153.27
  Q 340.51 153.55 339.94 153.56
  Q 335.99 153.63 332.10 153.72
  Q 331.40 153.74 330.84 154.09
  A 0.46 0.46 0.0 0 0 330.85 154.87
  Q 333.81 156.68 337.05 158.31
  Q 337.78 158.68 338.23 159.33
  A 0.52 0.52 0.0 0 1 337.98 160.11
  Q 334.40 161.45 330.26 161.29
  Q 328.95 161.24 330.10 161.87
  Z"
/>
<path fill="#ffffff" d="
  M 306.23 151.16
  L 310.49 145.78
  A 1.98 1.98 0.0 0 1 311.43 145.12
  L 319.21 142.58
  A 1.98 1.98 0.0 0 1 321.27 145.81
  L 315.83 151.67
  A 1.98 1.98 0.0 0 1 314.97 152.22
  L 308.37 154.28
  A 1.98 1.98 0.0 0 1 306.23 151.16
  Z"
/>
<path fill="#ffffff" d="
  M 303.10 161.24
  L 298.55 169.09
  A 1.53 1.53 0.0 0 1 298.06 169.61
  L 292.20 173.41
  A 1.53 1.53 0.0 0 1 289.97 171.49
  L 293.49 163.74
  A 1.53 1.53 0.0 0 1 294.13 163.04
  L 301.02 159.14
  A 1.53 1.53 0.0 0 1 303.10 161.24
  Z"
/>
<path fill="#ffffff" d="
  M 219.87 237.39
  Q 227.08 250.91 233.79 264.39
  Q 234.58 266.00 233.49 267.48
  L 205.74 304.85
  A 0.37 0.37 0.0 0 1 205.13 304.82
  Q 201.74 299.10 197.96 291.89
  Q 168.95 236.55 142.89 188.41
  C 141.46 185.78 139.30 184.24 136.85 182.44
  Q 123.28 172.43 110.40 163.05
  Q 109.19 162.17 110.65 161.82
  Q 111.78 161.54 112.75 161.53
  Q 153.27 161.12 177.95 161.58
  Q 180.01 161.62 181.18 163.77
  C 194.35 188.21 206.82 212.87 219.87 237.39
  Z"
/>
<path fill="#ffffff" d="
  M 411.98 248.24
  L 458.29 162.91
  Q 459.07 161.48 460.69 161.48
  Q 493.15 161.31 526.79 161.45
  Q 527.75 161.45 528.61 161.75
  Q 530.09 162.26 528.81 163.16
  Q 513.34 173.97 499.06 185.31
  Q 498.00 186.16 497.32 187.38
  Q 468.27 239.79 440.61 289.06
  A 0.68 0.67 39.2 0 1 439.51 289.17
  Q 436.95 286.18 434.66 283.02
  Q 424.29 268.72 412.20 251.79
  A 3.36 3.35 41.6 0 1 411.98 248.24
  Z"
/>
<path fill="#ffffff" d="
  M 347.29 197.59
  A 0.78 0.78 0.0 0 0 347.26 198.75
  L 350.45 201.76
  A 0.55 0.55 0.0 0 1 350.27 202.66
  C 348.30 203.42 344.37 203.85 343.62 206.03
  C 342.66 208.81 345.85 209.49 347.62 210.11
  Q 349.02 210.59 349.07 212.08
  Q 349.26 217.64 344.02 217.34
  C 334.15 216.78 323.35 212.10 318.72 203.14
  C 316.49 198.82 318.46 193.88 321.20 190.18
  Q 324.49 185.75 326.99 180.95
  C 329.10 176.91 333.69 174.59 337.63 172.46
  C 342.96 169.56 343.73 162.61 350.57 161.75
  A 2.36 2.36 0.0 0 1 353.16 163.50
  Q 354.51 168.76 354.60 173.79
  Q 354.79 183.69 358.10 194.48
  Q 358.67 196.34 356.82 196.92
  Q 355.93 197.21 354.98 197.20
  Q 351.50 197.19 347.99 197.32
  Q 347.59 197.34 347.29 197.59
  Z
  M 330.93 182.87
  Q 336.86 183.83 342.02 185.48
  C 344.13 186.15 346.84 186.43 348.60 184.73
  C 350.27 183.12 352.29 179.78 351.31 177.38
  Q 350.74 176.00 349.24 175.79
  C 342.49 174.87 334.99 176.33 330.47 181.60
  A 0.78 0.77 -65.0 0 0 330.93 182.87
  Z"
/>
<path fill="#ffffff" d="
  M 312.76 178.74
  Q 310.64 178.85 312.63 179.60
  Q 314.47 180.30 316.35 180.87
  Q 316.81 181.01 317.05 181.44
  A 0.86 0.86 0.0 0 1 316.65 182.66
  C 309.82 185.68 303.13 183.25 296.59 180.64
  A 0.64 0.64 0.0 0 1 296.43 179.55
  Q 300.61 176.13 304.06 171.82
  C 306.29 169.05 309.39 170.27 311.98 171.50
  Q 315.99 173.41 320.20 175.45
  A 0.42 0.42 0.0 0 1 320.24 176.18
  Q 316.63 178.52 312.76 178.74
  Z"
/>
<path fill="#ffffff" d="
  M 272.66 182.61
  Q 273.29 182.95 273.74 183.50
  A 0.63 0.62 -40.8 0 1 273.67 184.35
  Q 270.79 187.01 267.49 188.54
  A 0.55 0.55 0.0 0 1 266.71 188.02
  C 267.01 181.34 270.77 175.29 278.36 176.53
  Q 281.82 177.10 278.56 178.39
  Q 275.25 179.71 272.60 181.85
  Q 272.06 182.28 272.66 182.61
  Z"
/>
<path fill="#ffffff" d="
  M 299.57 188.77
  C 300.80 189.51 302.46 189.95 303.56 190.75
  Q 305.41 192.08 303.17 192.50
  Q 298.97 193.28 295.03 194.16
  C 292.36 194.76 290.47 196.58 288.44 198.28
  C 284.93 201.22 281.95 197.17 282.03 193.84
  C 282.12 189.66 286.35 184.23 291.21 185.32
  Q 295.39 186.25 299.57 188.77
  Z"
/>
<path fill="#ffffff" d="
  M 270.62 210.97
  Q 268.45 216.10 263.49 216.83
  A 1.01 0.99 65.7 0 1 262.58 216.48
  Q 261.61 215.34 261.34 213.78
  C 260.15 207.00 262.54 202.40 267.47 198.33
  C 269.91 196.31 271.75 193.93 273.93 191.71
  A 0.50 0.50 0.0 0 1 274.78 191.96
  C 275.91 197.84 273.03 205.29 270.62 210.97
  Z"
/>
<path fill="#ffffff" d="
  M 266.33 224.06
  C 273.85 222.03 281.32 218.62 285.11 211.67
  Q 286.38 209.34 287.85 207.08
  Q 289.11 205.14 289.01 207.46
  Q 288.58 217.26 280.85 222.56
  Q 275.77 226.04 270.40 229.95
  C 266.15 233.04 263.02 236.77 259.37 240.31
  Q 257.68 241.96 255.39 242.97
  A 0.85 0.83 -22.7 0 1 254.27 242.52
  C 252.34 237.78 254.00 231.21 257.74 228.15
  Q 261.01 225.49 266.33 224.06
  Z"
/>
<path fill="#ffffff" d="
  M 139.63 423.15
  Q 138.61 433.75 135.96 442.90
  C 134.59 447.62 133.54 452.58 134.12 457.32
  C 134.45 460.08 135.69 465.56 134.13 468.00
  A 1.53 1.52 -50.5 0 1 131.74 468.23
  C 130.84 467.29 130.64 466.21 130.18 465.06
  Q 125.20 452.68 126.49 439.27
  Q 127.54 428.22 129.23 418.36
  C 131.48 405.21 136.42 394.53 144.97 383.33
  Q 153.05 372.73 164.40 359.69
  C 174.65 347.90 184.48 339.81 197.56 329.58
  Q 200.61 327.20 207.57 318.59
  Q 228.39 292.82 245.55 266.33
  C 252.19 256.08 259.93 249.72 272.03 246.30
  Q 278.39 244.49 285.39 243.59
  C 293.09 242.60 298.18 238.72 303.44 233.48
  C 310.16 226.80 312.17 217.36 313.08 208.37
  Q 313.30 206.22 314.32 208.12
  C 319.34 217.53 324.58 226.03 326.92 236.43
  C 328.30 242.55 326.97 247.74 319.59 247.67
  C 316.52 247.64 309.63 247.45 307.20 249.18
  A 0.57 0.57 0.0 0 0 307.30 250.17
  C 311.48 252.00 315.39 253.73 317.19 258.32
  Q 317.37 258.77 317.18 259.23
  Q 316.39 261.18 314.77 262.33
  Q 304.75 269.47 291.17 279.13
  Q 285.72 283.02 279.48 288.47
  A 0.57 0.57 0.0 0 1 278.57 288.25
  Q 275.66 280.85 274.40 273.24
  C 274.11 271.52 274.40 269.78 274.04 268.13
  A 0.96 0.96 0.0 0 0 272.38 267.69
  Q 261.80 279.56 251.94 291.40
  C 239.58 306.24 226.24 320.38 213.14 334.61
  C 209.78 338.26 206.72 342.68 204.30 347.02
  C 199.22 356.16 191.45 363.55 183.16 370.12
  Q 174.17 377.24 163.24 385.50
  Q 154.67 391.97 151.15 396.02
  Q 147.97 399.68 149.91 404.50
  Q 154.65 416.30 156.19 429.97
  Q 156.58 433.43 156.23 437.15
  Q 155.79 441.80 155.35 446.06
  Q 155.23 447.29 154.00 447.19
  C 149.88 446.87 148.96 438.57 148.95 435.62
  C 148.94 429.72 146.25 425.46 140.98 422.45
  Q 139.76 421.76 139.63 423.15
  Z"
/>
<path fill="#ffffff" d="
  M 282.34 232.93
  C 291.07 227.70 296.00 223.69 295.94 212.60
  Q 295.93 210.23 297.04 212.33
  C 303.43 224.49 293.61 232.34 282.70 233.94
  Q 279.99 234.34 282.34 232.93
  Z"
/>
<path fill="#ffffff" d="
  M 369.94 244.80
  Q 370.15 249.01 371.17 253.45
  Q 373.68 264.33 375.78 275.00
  C 377.60 284.25 378.50 294.77 370.17 301.04
  C 365.89 304.25 361.23 302.00 360.06 297.16
  Q 359.22 293.63 359.80 289.73
  Q 361.49 278.38 362.31 266.36
  A 0.75 0.71 -68.5 0 0 362.07 265.77
  Q 361.63 265.38 361.17 265.53
  Q 360.25 265.83 360.02 266.77
  Q 355.53 285.32 345.10 300.93
  Q 342.07 305.46 343.65 300.25
  Q 350.51 277.56 354.82 251.22
  Q 356.05 243.71 356.53 235.85
  Q 356.63 234.12 357.85 235.35
  Q 359.14 236.66 359.88 238.57
  Q 363.17 247.02 364.16 254.20
  A 0.42 0.42 0.0 0 0 364.86 254.46
  Q 365.31 254.07 365.55 253.51
  Q 369.21 244.87 369.30 235.81
  Q 369.32 234.12 371.01 234.05
  C 386.73 233.38 395.31 247.53 403.90 259.83
  Q 421.85 285.54 434.50 305.27
  Q 436.54 308.46 439.71 309.13
  C 449.47 311.20 459.55 314.79 468.83 316.16
  Q 472.95 316.77 479.31 314.70
  C 484.24 313.11 484.00 305.85 489.80 305.10
  C 493.97 304.56 495.11 298.35 495.80 294.92
  Q 499.03 278.86 501.91 264.97
  C 502.55 261.87 499.22 258.79 498.99 255.52
  C 498.66 250.87 501.45 248.65 504.12 245.60
  A 0.63 0.63 0.0 0 0 503.68 244.55
  Q 498.94 244.32 496.49 248.43
  Q 494.47 251.82 492.46 248.43
  Q 492.30 248.18 492.19 247.91
  Q 490.69 244.53 492.25 240.80
  Q 494.25 235.99 499.49 233.75
  Q 505.40 231.23 511.14 234.14
  C 515.63 236.42 519.03 241.18 519.00 246.32
  C 518.95 253.08 515.59 257.44 510.75 261.52
  A 4.68 4.66 76.6 0 0 509.19 264.07
  Q 504.63 284.02 500.63 302.86
  Q 500.11 305.36 501.07 307.57
  C 504.27 314.90 506.36 321.97 500.61 328.78
  C 499.20 330.46 497.10 331.16 495.61 332.65
  Q 495.17 333.08 495.04 333.69
  L 479.86 403.69
  Q 479.55 405.16 478.07 404.89
  L 475.08 404.34
  A 1.84 1.84 0.0 0 1 473.61 402.16
  Q 481.03 366.45 487.77 336.48
  Q 488.09 335.08 487.91 333.71
  Q 487.84 333.19 487.38 332.93
  C 482.89 330.41 478.05 329.40 473.60 332.11
  C 457.44 341.96 441.47 337.38 429.05 324.47
  C 413.83 308.64 399.30 291.24 390.46 271.43
  Q 385.90 261.24 382.45 255.61
  Q 378.39 248.98 371.30 244.05
  Q 369.86 243.04 369.94 244.80
  Z"
/>
<path fill="#ffffff" d="
  M 324.33 294.74
  Q 323.59 294.96 323.22 295.65
  Q 321.59 298.67 319.86 301.62
  Q 310.09 318.25 294.04 327.71
  C 291.25 329.35 288.21 330.44 285.44 332.12
  A 0.58 0.58 0.0 0 0 285.38 333.08
  Q 287.29 334.57 289.57 335.15
  C 302.23 338.38 312.06 333.12 322.56 326.41
  Q 322.74 326.29 322.87 326.47
  L 323.02 326.67
  Q 323.10 326.79 322.99 326.88
  Q 311.98 336.40 298.31 341.13
  C 294.08 342.59 289.58 343.20 285.27 343.78
  Q 279.36 344.59 278.59 339.27
  Q 277.84 334.03 276.97 328.59
  A 1.90 1.90 0.0 0 1 278.33 326.46
  Q 284.24 324.78 289.53 322.73
  C 298.47 319.26 308.44 311.24 310.23 301.53
  A 0.57 0.57 0.0 0 0 309.82 300.87
  Q 308.80 300.58 308.00 301.19
  C 299.04 308.02 288.18 315.31 277.47 317.49
  A 0.89 0.88 -10.2 0 1 276.41 316.76
  Q 275.81 312.95 276.00 309.43
  A 1.24 1.23 -79.5 0 1 277.61 308.32
  Q 280.49 309.24 283.62 308.98
  A 1.01 1.01 0.0 0 0 284.48 307.62
  C 281.21 298.98 287.16 293.37 293.64 288.71
  Q 305.38 280.27 317.66 270.69
  C 326.83 263.53 335.00 254.84 343.17 245.93
  A 1.14 1.14 0.0 0 1 345.14 246.51
  Q 345.52 248.80 345.13 251.04
  Q 341.28 272.88 334.25 291.33
  C 330.99 299.91 326.68 307.97 320.14 313.94
  Q 319.30 314.71 319.67 313.62
  Q 322.81 304.63 324.98 295.36
  A 0.52 0.52 0.0 0 0 324.33 294.74
  Z"
/>
<path fill="#e5e9ee" d="
  M 275.17 369.84
  Q 276.22 370.50 277.49 370.78
  Q 285.18 372.45 291.04 371.91
  Q 295.23 371.52 299.57 370.96
  C 306.58 370.07 313.07 368.02 319.58 364.96
  A 0.41 0.41 0.0 0 1 320.14 365.48
  Q 319.71 366.64 319.03 367.65
  Q 303.11 391.23 275.95 397.66
  Q 275.47 397.78 275.33 398.28
  A 0.68 0.67 -70.5 0 0 275.71 399.09
  Q 283.10 402.15 290.88 400.42
  C 310.13 396.14 325.41 379.92 337.36 365.18
  Q 337.75 364.69 338.33 364.41
  Q 339.49 363.85 338.99 365.04
  Q 332.33 380.79 321.41 395.31
  C 316.86 401.37 311.21 406.96 305.84 412.31
  A 2.10 2.10 0.0 0 0 305.48 414.82
  L 319.37 439.69
  Q 319.97 440.77 321.10 440.27
  Q 321.70 440.01 322.37 438.87
  Q 333.57 419.78 344.18 400.80
  C 353.25 384.58 364.29 366.45 371.34 351.84
  Q 380.59 332.66 388.70 308.85
  Q 388.88 308.33 389.27 307.83
  Q 389.65 307.36 390.05 307.80
  Q 392.98 311.00 395.99 314.28
  C 402.54 321.39 410.24 327.81 417.61 334.00
  A 1.25 1.25 0.0 0 1 417.89 335.57
  Q 405.89 356.91 394.08 378.03
  C 391.82 382.07 389.02 385.55 387.02 390.04
  Q 386.23 391.81 384.66 393.12
  A 1.53 1.50 -15.0 0 0 384.14 394.00
  Q 383.73 396.05 382.67 397.99
  Q 373.09 415.55 363.57 432.32
  Q 342.60 469.21 321.64 506.88
  Q 321.24 507.60 321.05 507.77
  Q 320.41 508.34 319.99 507.59
  C 310.70 491.03 301.91 474.92 292.60 458.74
  Q 266.47 413.35 240.92 366.59
  Q 234.04 354.01 227.56 342.48
  A 1.55 1.54 -35.7 0 1 227.88 340.58
  C 236.16 333.20 244.01 326.06 251.71 317.68
  A 1.00 1.00 0.0 0 1 253.34 317.91
  Q 263.19 337.25 272.47 354.76
  C 273.39 356.50 274.81 357.19 276.83 357.21
  Q 283.40 357.26 286.75 356.68
  C 304.68 353.56 320.70 344.05 333.97 331.70
  Q 336.02 329.79 334.51 332.14
  Q 333.72 333.36 332.79 334.42
  Q 317.30 352.10 296.64 361.05
  Q 285.99 365.66 275.32 368.77
  A 0.59 0.59 0.0 0 0 275.17 369.84
  Z"
/>
<path fill="#e5e9ee" d="
  M 364.00 339.13
  C 365.94 334.57 367.49 329.89 368.95 324.90
  Q 369.45 323.20 369.93 324.90
  C 371.29 329.70 367.30 336.07 364.50 339.43
  Q 363.20 340.99 364.00 339.13
  Z"
/>
</svg>
