<?xml version="1.0" encoding="UTF-8" standalone="no"?>
<!DOCTYPE svg PUBLIC "-//W3C//DTD SVG 1.1//EN" "http://www.w3.org/Graphics/SVG/1.1/DTD/svg11.dtd">
<svg xmlns="http://www.w3.org/2000/svg" version="1.1" viewBox="0.00 0.00 625.00 625.00">
<ellipse fill="#000000" cx="0.00" cy="0.00" transform="translate(335.77,132.82) rotate(-32.9)" rx="8.92" ry="3.33"/>
<path fill="#000000" d="
  M 284.99 173.13
  Q 284.83 173.59 284.34 173.56
  Q 283.98 173.53 283.68 173.33
  Q 283.24 173.05 283.03 172.60
  Q 281.28 168.86 281.03 165.07
  C 280.08 150.24 288.93 136.35 303.69 132.53
  Q 312.93 130.14 321.89 132.78
  Q 323.13 133.14 322.61 134.32
  C 321.92 135.87 320.92 137.10 319.09 137.26
  C 310.21 138.06 302.77 143.72 300.31 151.74
  A 2.39 2.39 0.0 0 1 299.26 153.08
  Q 297.75 153.98 296.09 154.79
  C 291.36 157.10 287.53 161.77 286.52 167.15
  Q 285.94 170.29 284.99 173.13
  Z"
/>
<path fill="#000000" d="
  M 330.48 161.51
  L 330.50 161.83
  Q 330.53 162.58 331.27 162.68
  Q 332.91 162.89 334.02 163.79
  A 0.90 0.90 0.0 0 1 333.94 165.25
  Q 328.18 168.93 320.49 166.64
  Q 315.63 165.20 310.75 164.54
  A 0.59 0.59 0.0 0 1 310.29 163.71
  Q 310.60 163.03 311.09 162.54
  Q 317.45 156.11 324.39 152.85
  Q 325.40 152.38 325.79 151.47
  C 329.53 142.91 341.63 140.41 349.77 142.62
  Q 357.41 144.70 356.25 151.99
  Q 356.14 152.69 355.45 152.49
  C 353.52 151.94 352.45 150.22 351.11 148.86
  Q 348.66 146.40 349.87 149.65
  Q 350.56 151.48 350.81 153.41
  A 1.11 1.11 0.0 0 1 349.36 154.60
  Q 346.09 153.52 343.07 151.88
  A 0.82 0.82 0.0 0 0 342.08 152.05
  L 341.17 153.04
  Q 340.81 153.43 340.27 153.48
  Q 336.85 153.79 333.25 153.65
  Q 332.23 153.61 331.26 153.94
  A 0.66 0.66 0.0 0 0 331.16 155.15
  L 337.94 158.79
  A 0.79 0.78 47.9 0 1 337.87 160.21
  Q 334.99 161.39 330.79 161.21
  A 0.30 0.29 0.0 0 0 330.48 161.51
  Z"
/>
<path fill="#000000" d="
  M 321.37 145.76
  L 315.77 151.76
  A 1.97 1.97 0.0 0 1 314.90 152.30
  L 308.32 154.29
  A 1.97 1.97 0.0 0 1 306.22 151.17
  L 310.66 145.64
  A 1.97 1.97 0.0 0 1 311.60 145.00
  L 319.34 142.53
  A 1.97 1.97 0.0 0 1 321.37 145.76
  Z"
/>
<path fill="#000000" d="
  M 303.17 161.16
  L 298.63 169.04
  A 1.53 1.53 0.0 0 1 298.14 169.56
  L 292.13 173.47
  A 1.53 1.53 0.0 0 1 289.90 171.55
  L 293.47 163.72
  A 1.53 1.53 0.0 0 1 294.11 163.03
  L 301.09 159.06
  A 1.53 1.53 0.0 0 1 303.17 161.16
  Z"
/>
<path fill="#000000" d="
  M 204.55 304.17
  Q 200.13 296.14 196.63 289.37
  C 179.67 256.56 161.73 223.41 142.92 188.46
  C 142.09 186.91 140.82 185.46 139.36 184.37
  Q 125.35 173.88 110.56 163.21
  Q 109.12 162.17 110.84 161.75
  Q 111.46 161.60 112.11 161.58
  Q 144.27 161.00 178.39 161.59
  A 2.71 2.71 0.0 0 1 180.73 163.02
  Q 191.48 182.98 202.00 203.23
  Q 215.47 229.13 228.78 254.46
  Q 231.37 259.40 233.82 264.47
  A 2.92 2.90 -39.7 0 1 233.53 267.45
  L 205.87 304.73
  A 0.53 0.52 -52.1 0 1 205.12 304.83
  Q 204.76 304.56 204.55 304.17
  Z"
/>
<path fill="#000000" d="
  M 492.66 195.88
  Q 466.77 242.42 440.83 288.76
  A 1.08 1.07 41.4 0 1 439.03 288.87
  Q 427.63 273.60 412.31 251.94
  C 410.89 249.93 411.70 248.60 412.71 246.74
  Q 435.82 204.49 458.16 163.00
  A 2.92 2.91 -76.0 0 1 460.71 161.46
  Q 493.72 161.28 527.92 161.47
  Q 528.33 161.47 528.74 161.66
  Q 530.11 162.30 528.86 163.16
  Q 513.70 173.65 498.69 185.65
  C 496.77 187.18 494.30 192.94 492.66 195.88
  Z"
/>
<path fill="#000000" d="
  M 347.25 198.43
  Q 347.36 199.11 348.01 199.55
  Q 349.30 200.44 350.37 201.56
  A 0.76 0.76 0.0 0 1 350.07 202.81
  C 348.03 203.51 342.59 204.14 343.61 207.55
  C 344.12 209.26 346.29 209.62 347.75 210.13
  Q 348.85 210.52 349.00 211.68
  C 349.55 216.17 346.88 217.87 343.01 217.37
  C 332.98 216.09 322.96 211.86 318.61 202.95
  C 316.44 198.51 318.60 193.66 321.37 189.92
  Q 324.45 185.77 326.93 181.01
  C 329.08 176.89 333.57 174.64 337.50 172.49
  C 342.90 169.54 343.46 162.92 350.54 161.75
  A 2.34 2.33 -12.4 0 1 353.17 163.43
  Q 354.45 168.08 354.59 173.38
  Q 354.87 183.92 357.87 193.57
  Q 358.23 194.74 358.03 195.98
  A 1.43 1.42 -85.6 0 1 356.65 197.17
  L 348.25 197.25
  A 1.02 1.02 0.0 0 0 347.25 198.43
  Z
  M 348.69 175.74
  C 342.61 174.95 335.02 176.43 330.78 181.20
  A 1.04 1.04 0.0 0 0 331.40 182.93
  Q 336.48 183.70 342.01 185.44
  Q 347.43 187.15 349.94 183.16
  C 351.46 180.77 353.15 176.33 348.69 175.74
  Z"
/>
<path fill="#000000" d="
  M 313.18 178.61
  Q 312.52 178.62 312.77 179.24
  L 312.87 179.49
  Q 313.05 179.95 313.53 180.08
  L 316.65 180.90
  A 0.89 0.89 0.0 0 1 316.82 182.55
  C 310.29 185.82 303.17 183.31 296.77 180.77
  A 0.79 0.79 0.0 0 1 296.55 179.43
  Q 300.79 175.87 304.51 171.32
  C 306.43 168.97 310.60 170.62 313.06 171.94
  Q 316.48 173.79 319.99 175.14
  A 0.64 0.63 38.0 0 1 320.13 176.25
  Q 316.94 178.51 313.18 178.61
  Z"
/>
<path fill="#000000" d="
  M 272.94 182.54
  Q 274.46 184.07 272.72 185.32
  Q 270.41 186.98 268.25 188.28
  Q 267.79 188.55 267.24 188.50
  A 0.63 0.63 0.0 0 1 266.67 187.84
  C 266.98 181.34 271.11 174.89 278.66 176.57
  Q 281.53 177.21 278.80 178.29
  Q 275.56 179.59 273.02 181.51
  A 0.69 0.68 -41.1 0 0 272.94 182.54
  Z"
/>
<path fill="#000000" d="
  M 287.15 185.89
  C 291.59 183.40 299.56 188.75 303.58 190.71
  Q 305.60 191.68 303.46 192.34
  C 299.36 193.59 294.17 193.43 290.92 196.26
  C 289.15 197.81 286.90 200.38 284.33 198.75
  C 282.38 197.52 281.70 194.85 282.10 192.70
  Q 282.92 188.26 287.15 185.89
  Z"
/>
<path fill="#000000" d="
  M 270.86 210.58
  Q 268.93 215.43 264.39 216.72
  A 2.18 2.17 74.1 0 1 261.71 215.22
  C 259.30 206.83 263.14 201.60 269.29 196.66
  C 271.13 195.19 272.12 193.14 274.01 191.74
  A 0.56 0.56 0.0 0 1 274.90 192.13
  C 275.62 198.50 273.19 204.70 270.86 210.58
  Z"
/>
<path fill="#000000" d="
  M 265.27 224.37
  C 272.92 222.22 280.65 219.22 284.92 212.04
  Q 286.48 209.40 287.88 206.74
  Q 288.32 205.90 288.98 206.59
  Q 289.29 206.92 289.22 207.39
  Q 288.48 212.70 286.70 216.32
  Q 285.01 219.76 280.30 223.04
  Q 275.26 226.56 270.33 230.01
  C 266.29 232.85 263.19 236.64 259.73 240.04
  Q 257.97 241.77 255.65 242.88
  A 1.25 1.24 71.7 0 1 253.90 241.99
  C 252.05 232.42 256.71 226.78 265.27 224.37
  Z"
/>
<path fill="#000000" d="
  M 274.05 268.30
  A 0.90 0.89 -24.3 0 0 272.50 267.72
  Q 267.91 272.57 263.65 277.64
  C 246.18 298.49 231.03 315.24 213.76 333.94
  C 209.83 338.20 206.53 343.01 203.60 348.20
  C 198.48 357.27 189.57 365.28 181.46 371.52
  Q 171.58 379.13 161.01 387.20
  Q 154.34 392.29 150.45 397.03
  C 147.83 400.21 150.16 405.71 151.58 409.14
  C 154.12 415.30 155.12 422.16 156.10 428.81
  Q 156.67 432.68 156.28 436.83
  Q 155.84 441.51 155.38 445.88
  Q 155.24 447.20 153.91 447.20
  C 151.03 447.20 149.30 441.14 149.13 438.97
  C 148.90 436.14 149.02 433.30 148.15 430.59
  Q 146.54 425.59 140.75 422.27
  A 0.72 0.71 17.2 0 0 139.68 422.83
  Q 138.84 433.16 135.49 444.71
  Q 133.41 451.91 134.15 457.29
  Q 134.87 462.48 134.79 467.14
  A 1.60 1.59 2.4 0 1 133.09 468.70
  C 131.14 468.58 130.99 467.12 130.38 465.72
  Q 125.41 454.34 126.56 439.01
  Q 127.69 423.97 130.81 411.14
  C 133.31 400.90 138.48 391.84 144.79 383.53
  Q 153.22 372.41 165.77 358.14
  C 174.81 347.85 183.99 340.10 194.54 331.98
  C 198.87 328.66 202.81 324.42 206.35 320.12
  C 221.06 302.30 234.25 283.31 247.83 263.17
  C 256.38 250.50 269.70 245.47 284.40 243.76
  C 291.48 242.93 295.96 240.32 301.61 235.26
  C 309.55 228.15 312.02 218.99 312.91 208.91
  Q 313.18 205.86 314.59 208.58
  C 319.92 218.86 325.89 228.02 327.35 239.52
  C 328.10 245.38 324.22 247.82 319.01 247.73
  C 315.68 247.68 312.23 247.70 309.03 248.43
  Q 305.17 249.30 308.82 250.83
  C 312.83 252.51 321.17 257.79 314.78 262.36
  Q 302.93 270.82 290.70 279.49
  C 286.81 282.25 283.16 285.41 279.57 288.42
  A 0.67 0.66 58.7 0 1 278.52 288.16
  Q 274.38 277.89 274.05 268.30
  Z"
/>
<path fill="#000000" d="
  M 298.08 224.30
  C 296.05 229.84 288.84 232.95 283.05 233.89
  Q 279.61 234.45 282.63 232.69
  C 289.05 228.94 294.81 224.94 295.63 216.94
  Q 295.89 214.48 295.98 212.23
  Q 296.05 210.63 296.89 212.00
  Q 300.46 217.80 298.08 224.30
  Z"
/>
<path fill="#000000" d="
  M 365.33 253.91
  Q 369.08 245.74 369.30 235.82
  A 1.85 1.84 -0.5 0 1 371.07 234.02
  C 378.87 233.68 387.35 238.14 392.21 244.06
  Q 397.65 250.68 403.93 259.76
  Q 421.98 285.84 435.09 306.00
  Q 436.51 308.19 439.08 308.89
  C 442.82 309.89 446.55 310.52 450.27 311.67
  Q 457.80 313.99 465.51 315.58
  C 471.01 316.71 474.52 316.31 479.53 314.56
  Q 481.81 313.76 483.06 311.35
  Q 484.53 308.53 486.66 306.51
  C 488.53 304.72 491.71 305.48 493.05 303.07
  Q 494.70 300.10 495.40 296.69
  Q 498.54 281.27 501.74 265.79
  Q 502.36 262.83 500.57 260.04
  C 498.18 256.31 498.33 251.46 501.67 248.39
  Q 502.98 247.18 503.97 245.60
  A 0.74 0.74 0.0 0 0 503.30 244.46
  Q 498.37 244.73 495.99 249.26
  A 1.65 1.64 39.1 0 1 493.26 249.54
  C 489.40 244.82 492.30 238.24 496.72 235.27
  Q 504.53 230.03 512.35 234.82
  C 520.78 239.99 520.87 251.22 514.52 257.90
  Q 512.70 259.80 510.73 261.58
  Q 509.57 262.62 509.21 264.13
  Q 506.80 274.16 504.72 284.28
  C 503.45 290.49 501.89 296.71 500.73 302.52
  C 499.81 307.15 502.97 311.10 503.80 315.24
  Q 506.15 326.88 495.81 332.31
  A 1.24 1.23 -8.1 0 0 495.18 333.14
  L 479.80 404.11
  Q 479.59 405.06 478.64 404.90
  L 475.12 404.34
  Q 473.22 404.04 473.61 402.15
  Q 480.24 370.04 488.04 335.03
  C 488.45 333.18 486.54 332.33 485.13 331.79
  C 480.78 330.12 477.10 329.92 473.18 332.34
  C 457.05 342.29 440.87 336.86 428.67 324.11
  Q 416.32 311.22 406.32 298.08
  Q 395.29 283.60 386.89 263.92
  Q 381.58 251.47 371.87 244.38
  Q 371.38 244.03 370.80 244.02
  A 0.89 0.89 0.0 0 0 369.91 245.02
  C 370.25 247.53 370.36 250.21 370.95 252.63
  Q 374.23 265.91 376.40 278.75
  C 377.76 286.77 377.36 295.98 370.22 300.95
  Q 364.18 305.16 360.66 298.73
  C 359.21 296.11 359.41 292.26 359.84 289.33
  Q 361.47 278.21 362.31 266.92
  Q 362.37 266.03 361.58 265.61
  Q 361.05 265.33 360.47 265.89
  A 1.12 1.12 0.0 0 0 360.14 266.45
  Q 355.57 285.28 345.25 300.68
  Q 342.02 305.50 343.70 299.95
  Q 350.49 277.60 354.80 251.42
  Q 356.01 244.01 356.49 235.69
  Q 356.56 234.41 357.59 235.17
  Q 358.76 236.04 359.40 237.55
  Q 362.68 245.24 364.30 253.79
  Q 364.62 255.46 365.33 253.91
  Z"
/>
<path fill="#000000" d="
  M 324.71 294.98
  A 0.54 0.53 50.3 0 0 323.75 294.89
  Q 322.23 297.44 320.81 299.99
  Q 308.46 322.16 286.01 331.67
  A 1.02 1.02 0.0 0 0 285.90 333.49
  C 293.23 337.76 303.41 336.42 310.92 332.99
  Q 316.75 330.33 322.79 326.15
  Q 322.86 326.10 322.91 326.17
  L 323.08 326.40
  A 0.39 0.38 51.2 0 1 323.03 326.92
  C 312.11 336.26 298.85 342.76 284.31 343.84
  Q 279.32 344.21 278.60 339.40
  Q 277.79 334.02 276.98 328.47
  A 1.84 1.83 -11.8 0 1 278.31 326.44
  C 291.18 322.87 302.14 318.22 308.77 306.14
  Q 309.70 304.46 309.99 302.73
  Q 310.57 299.28 307.80 301.41
  C 299.19 308.00 288.39 315.09 278.01 317.39
  Q 276.48 317.73 276.28 316.18
  Q 275.82 312.70 276.02 309.43
  A 1.29 1.29 0.0 0 1 277.75 308.29
  Q 280.46 309.27 283.58 308.92
  A 1.04 1.03 76.3 0 0 284.43 307.52
  C 282.11 301.45 284.69 295.75 289.49 291.98
  Q 297.95 285.36 308.25 277.90
  Q 327.24 264.15 342.50 246.49
  Q 344.29 244.42 345.39 246.77
  Q 345.60 247.19 345.38 248.71
  Q 342.72 266.99 336.61 284.91
  C 332.90 295.78 328.85 305.13 320.86 313.36
  Q 318.98 315.31 319.91 312.77
  Q 322.80 304.95 324.77 295.97
  Q 324.89 295.46 324.71 294.98
  Z"
/>
<path fill="#1b1712" d="
  M 275.73 398.56
  Q 275.89 399.17 276.52 399.41
  Q 284.29 402.40 293.33 399.81
  C 311.90 394.50 325.62 379.21 337.77 364.69
  Q 338.02 364.40 338.37 364.30
  Q 339.43 364.00 339.00 365.01
  Q 327.33 392.44 306.30 411.73
  Q 304.72 413.18 305.78 415.17
  Q 312.18 427.08 319.45 439.63
  A 1.41 1.41 0.0 0 0 321.89 439.64
  C 335.03 417.46 347.53 394.77 360.30 372.53
  Q 371.33 353.34 378.41 336.12
  Q 383.99 322.56 388.86 308.21
  A 0.78 0.77 33.5 0 1 390.17 307.95
  Q 402.84 322.14 417.42 333.67
  A 1.64 1.64 0.0 0 1 417.83 335.76
  Q 405.47 357.65 393.91 378.38
  Q 392.45 380.99 390.68 383.49
  C 388.60 386.42 387.63 389.88 385.21 392.58
  C 383.62 394.34 383.43 397.00 382.14 399.11
  C 379.35 403.71 377.04 408.51 374.40 413.16
  Q 348.55 458.76 321.83 506.52
  Q 321.41 507.28 320.92 507.84
  A 0.53 0.53 0.0 0 1 320.06 507.75
  C 310.80 491.23 301.77 474.69 292.33 458.29
  Q 266.54 413.42 245.33 374.72
  Q 236.55 358.69 227.78 342.79
  Q 226.90 341.19 228.29 340.01
  Q 240.99 329.27 251.70 317.68
  A 1.01 1.00 52.8 0 1 253.33 317.91
  Q 262.19 335.14 271.48 352.95
  C 272.55 354.99 273.51 357.03 276.14 357.14
  C 297.79 358.09 319.51 345.59 334.84 330.81
  Q 334.91 330.74 334.99 330.79
  L 335.21 330.94
  Q 335.53 331.14 335.30 331.43
  C 324.43 344.89 310.77 355.17 294.84 361.87
  Q 285.29 365.88 276.90 368.26
  Q 272.95 369.38 276.89 370.53
  C 285.17 372.93 293.72 371.92 302.14 370.55
  Q 310.73 369.15 319.50 364.94
  A 0.49 0.49 0.0 0 1 320.17 365.57
  Q 319.86 366.35 319.41 367.04
  Q 303.76 390.90 276.31 397.59
  A 0.80 0.79 76.0 0 0 275.73 398.56
  Z"
/>
<path fill="#000000" d="
  M 364.15 338.77
  Q 367.10 332.10 368.83 325.28
  Q 369.42 322.91 370.07 325.26
  C 371.23 329.50 367.20 335.96 364.71 339.11
  Q 363.10 341.13 364.15 338.77
  Z"
/>
</svg>
